{"title":"UEL Highlights 2016-03-17 ITV HDTV 1080p 2ch x265 10bit [S-Less]","uid":13915034,"size":377470376,"categoryP":"video","categoryS":"hd___tv_shows","magnet":"?xt=urn:btih:9d0dd4beb35637cefd0683fc806b8d3263a642b1&amp;dn=UEL+Highlights+2016-03-17+ITV+HDTV+1080p+2ch+x265+10bit+%5BS-Less%5D&amp;tr=udp%3A%2F%2Ftracker.leechers-paradise.org%3A6969&amp;tr=udp%3A%2F%2Fzer0day.ch%3A1337&amp;tr=udp%3A%2F%2Fopen.demonii.com%3A1337&amp;tr=udp%3A%2F%2Ftracker.coppersurfer.tk%3A6969&amp;tr=udp%3A%2F%2Fexodus.desync.com%3A6969","seeders":0,"leechers":1,"uploader":"soulessness","files":1,"time":1458339596,"description":"UEL.Highlights.2016-03-17.ITV.HDTV.1080p.2ch.x265.10bit.[S-Less]\r\n\r\nAction from the last-16 second-leg ties, as the teams attempted to secure a passage to the quarter-finals. Fixtures included Manchester United v Liverpool at Old Trafford, and Tottenham Hotspur v Borussia Dortmund at White Hart Lane. Mark Pougatch is joined by Roy Keane and Dietmar Hamann pitchside at Old Trafford, while Jacqui Oatley is in the studio with Glenn Hoddle.\r\n\r\nMediaInfo:\r\n\r\nVideo\r\nID : 1\r\nFormat : HEVC\r\nFormat/Info : High Efficiency Video Coding\r\nFormat profile : Main   @Main\r\nCodec ID : V_MPEGH/ISO/HEVC\r\nDuration : 54mn 57s\r\nBit rate : 818 Kbps\r\nWidth : 1 920 pixels\r\nHeight : 1 080 pixels\r\nDisplay aspect ratio : 16:9\r\nFrame rate mode : Constant\r\nFrame rate : 25.000 fps\r\nColor space : YUV\r\nChroma subsampling : 4:2:0\r\nBit depth : 10 bits\r\nBits/(Pixel*Frame) : 0.016\r\nStream size : 321 MiB (89%)\r\nWriting library : x265 1.8+2-55a4a9b920ff:[Windows][GCC 5.2.0][64 bit] 10bit\r\nDefault : Yes\r\nForced : No\r\n\r\nAudio\r\nID : 2\r\nFormat : AAC\r\nFormat/Info : Advanced Audio Codec\r\nFormat profile : LC\r\nCodec ID : A_AAC\r\nDuration : 54mn 57s\r\nBit rate : 96.0 Kbps\r\nChannel(s) : 2 channels\r\nChannel positions : Front: L R\r\nSampling rate : 48.0 KHz\r\nFrame rate : 46.875 fps (1024 spf)\r\nCompression mode : Lossy\r\nDelay relative to video : 9ms\r\nStream size : 37.7 MiB (10%)\r\nLanguage : English\r\nDefault : Yes\r\nForced : No","torrent":{"xt":"urn:btih:9d0dd4beb35637cefd0683fc806b8d3263a642b1","amp;dn":"UEL+Highlights+2016-03-17+ITV+HDTV+1080p+2ch+x265+10bit+%5BS-Less%5D","amp;tr":["udp%3A%2F%2Ftracker.leechers-paradise.org%3A6969","udp%3A%2F%2Fzer0day.ch%3A1337","udp%3A%2F%2Fopen.demonii.com%3A1337","udp%3A%2F%2Ftracker.coppersurfer.tk%3A6969","udp%3A%2F%2Fexodus.desync.com%3A6969"],"infoHash":"9d0dd4beb35637cefd0683fc806b8d3263a642b1","infoHashBuffer":{"type":"Buffer","data":[157,13,212,190,179,86,55,206,253,6,131,252,128,107,141,50,99,166,66,177]},"announce":[],"urlList":[]}}